<svg xmlns="http://www.w3.org/2000/svg" xmlns:xlink="http://www.w3.org/1999/xlink" xmlns:inkscape="http://www.inkscape.org/namespaces/inkscape" version="1.1" width="375" height="375" viewBox="0 0 375 375">
<defs>
<clipPath id="clip_0">
<path transform="matrix(.24,0,0,.24,0,0)" d="M0 0H1562.5V1562.5H0Z" clip-rule="evenodd"/>
</clipPath>
<clipPath id="clip_1">
<path transform="matrix(.24,0,0,.24,0,0)" d="M0 0H1562.5V1562.5H0Z" clip-rule="evenodd"/>
</clipPath>
<clipPath id="clip_2">
<path transform="matrix(.24,0,0,.24,0,0)" d="M0 30.539772H1562.5V1561.7898H0Z" clip-rule="evenodd"/>
</clipPath>
</defs>
<g clip-path="url(#clip_0)">
<path transform="matrix(.75,0,0,.75,0,0)" d="M0 0H500V500H0Z" fill="#ffffff"/>
</g>
<g clip-path="url(#clip_1)">
<path transform="matrix(.75,0,0,.75,0,0)" d="M0 0H500V500H0Z" fill="#106665"/>
</g>
<g clip-path="url(#clip_2)">
<path transform="matrix(2.8456972,0,0,2.8456972,12.336015,16.720345)" d="M125.24 65.366C124.358 64.30299 122.796 63.802999 121.263 64.097 119.571 64.419 118.225 65.633 117.648 67.4 117.627 67.482 117.108 69.46 116.506008 73.517 116.46001 73.756 116.392009 73.963 116.313 74.157 116.114009 74.057 115.899 73.834 115.786 73.345L116.414 64.166C132.851 39.564004 126.034008 16.103 110.75 5.6080019 98.194-3.013 78.411-3.285 64.309 16.205 63.839998 16.034 63.355 15.933 62.872999 15.933 62.440999 15.933 62.03 16.015999 61.638998 16.147 47.532-3.298 27.76-3.002 15.219 5.624-.048000006 16.123-6.852 39.58 9.575 64.167L10.203 73.346C10.094 73.824 9.89 74.058 9.6710009 74.161 9.598001 73.977008 9.533001 73.782009 9.490001 73.559009 8.8810009 69.45901 8.363001 67.482 8.324 67.34401 7.7630007 65.63301 6.418 64.41901 4.7260005 64.09701 3.1930004 63.806009 1.6310003 64.30401 .7490003 65.366008-.07799971 66.36301-.22799975 67.689 .33200033 69.118007 1.8980002 72.90501 2.2730003 76.679 2.6050003 80.008 3.1440004 85.416 3.6280003 90.240009 9.326 91.832L9.442 124.936008C9.444 125.48701 9.891001 125.93201 10.442 125.93201 10.443001 125.93201 10.444 125.93201 10.445001 125.93201 10.997001 125.93001 11.444 125.48101 11.442 124.92801L11.327001 92.212009C12.149 92.31801 13.030001 92.38801 14.028001 92.38801 14.3880009 92.38801 14.761001 92.380008 15.146001 92.366008 15.698001 92.345 16.128 91.881008 16.107 91.329 16.086 90.777 15.636001 90.339008 15.069 90.368007 5.686 90.703 5.2720005 86.616008 4.594 79.809009 4.249 76.342 3.8579999 72.41301 2.1859999 68.371 1.9019998 67.647 1.9359999 67.065 2.287 66.642009 2.703 66.14001 3.532 65.90501 4.351 66.062007 4.927 66.171009 5.963 66.565 6.406 67.912 6.4110004 67.931 6.921 69.882 7.517 73.894008 7.94 76.09901 9.321 77.01501 10.54 77.82201 12.056 78.826007 13.253 79.62 12.944 83.032009 12.894 83.58201 13.3 84.06801 13.85 84.118007 14.397 84.176 14.886001 83.762 14.936001 83.212009 15.353001 78.61101 13.2960009 77.24901 11.644001 76.15501 11.402001 75.995 11.174001 75.842 10.960001 75.686008 11.522001 75.27801 12.001001 74.62 12.190001 73.593 12.205001 73.511 12.210001 73.427 12.204 73.344L10.592001 49.791C10.537001 49.128004 10.684001 48.641 11.007001 48.418 11.286001 48.225 11.713001 48.226999 12.119001 48.420999 12.862001 48.774999 13.356001 49.638998 13.442001 50.748998L14.705002 63.900999C14.302002 64.048 14.018002 64.431 14.044002 64.881999 14.076001 65.434 14.557001 65.851 15.099002 65.823 15.205002 65.814998 25.875002 65.273998 30.868002 70.355998 31.064002 70.55499 31.323002 70.655 31.581002 70.655 31.834002 70.655 32.087 70.559 32.282 70.368 32.676004 69.980998 32.682004 69.348 32.295003 68.953998 31.914002 68.565998 31.505002 68.20899 31.077002 67.87699 31.161002 67.74799 31.237002 67.61099 31.293002 67.45799 31.316002 67.39499 31.333003 67.328998 31.343 67.26299L32.912 57.03599C33.059999 56.340993 33.447999 55.972993 33.947999 56.061994 34.445 56.14699 34.920999 56.68899 34.783998 57.75299L33.472997 82.69299C33.472997 82.731998 33.368997 86.564998 30.759997 88.756 29.151997 90.105998 26.881997 90.564998 24.015997 90.115 23.475996 90.033 22.958998 90.403 22.873997 90.949 22.788998 91.494998 23.161997 92.006 23.706997 92.091999 24.523997 92.218997 25.303997 92.283 26.046998 92.283 27.088997 92.283 28.052998 92.149997 28.943997 91.899997L29.380997 124.94399C29.387997 125.49099 29.834998 125.92999 30.380997 125.92999 30.385996 125.92999 30.389998 125.92999 30.394997 125.92999 30.946997 125.92199 31.388997 125.468997 31.381997 124.91599L30.933997 91.06299C31.323996 90.83499 31.696997 90.57999 32.045 90.28699 32.692998 89.74299 33.214998 89.12698 33.642 88.48899 38.248998 91.91099 43.372999 95.27599 48.899999 98.50799L48.989999 124.93298C48.991998 125.483989 49.439 125.928989 49.989999 125.928989 49.990999 125.928989 49.991998 125.928989 49.992998 125.928989 50.544996 125.92699 50.991998 125.47799 50.989999 124.92499L50.839998 81.02699C51.987997 81.19299 53.258996 81.284999 54.685998 81.284999 55.144998 81.284999 55.621 81.27599 56.110998 81.257999 56.662996 81.23699 57.093999 80.773998 57.072999 80.22199 57.052 79.67099 56.587999 79.19799 56.036 79.259998 43.493 79.715999 42.965 74.364 42.065 65.479 41.616998 61.056997 41.108999 56.043996 38.942998 50.896997 38.664999 50.201997 38.466997 49.208997 39.101999 48.433996 39.706998 47.694997 40.915998 47.343996 42.100999 47.564996 43.496999 47.822996 44.567998 48.782995 45.024 50.144998 45.03 50.168996 45.695 52.657999 46.476999 57.825998 46.660997 58.767999 46.996999 59.510999 47.414999 60.132997 47.421998 60.143999 47.427 60.154996 47.434999 60.164999 48.218999 61.316999 49.296998 62.03 50.295 62.678998 52.269998 63.963998 53.975 65.074 53.557 69.605998 53.506 70.156 53.911 70.643 54.461 70.69399 55.005998 70.743999 55.497999 70.34 55.548 69.78999 56.077 64.05699 53.476 62.36299 51.385004 61.002996 50.944 60.715997 50.537004 60.444997 50.166 60.157995 50.98 59.704996 51.706 58.863996 51.972 57.444993 51.984 57.380994 51.99 57.31499 51.989 57.249994L51.676 27.260993C51.676 26.531992 51.869 25.947993 52.235 25.572993 52.536 25.263993 52.964 25.093993 53.439 25.093993 54.675 25.093993 55.989 26.202992 55.989 28.259993V45.26C55.968999 45.260999 55.944 45.261999 55.933 45.262998 55.382 45.292997 54.96 45.764997 54.990999 46.316999 55.020998 46.867998 55.505998 47.284997 56.044 47.259 56.188 47.253999 70.246 46.558 76.843997 53.155 77.038997 53.35 77.29499 53.447999 77.550998 53.447999 77.807 53.447999 78.062999 53.35 78.257999 53.155 78.648998 52.764 78.648998 52.132 78.257999 51.740999 78.021999 51.504999 77.77799 51.277997 77.52699 51.059L79.119998 35.753999C79.26199 34.352998 80.147998 33.558 80.822 33.558 81.558 33.594999 82.300998 34.659 82.303 36.886999L80.322 69.156C80.321 69.207 80.166 74.21 76.733 77.088 74.561008 78.909 71.501 79.532 67.641 78.939998 67.095 78.855998 66.584 79.229999 66.501 79.77699 66.417 80.32299 66.792 80.83299 67.337 80.91699 68.384998 81.077999 69.384998 81.15799 70.336 81.15799 71.817 81.15799 73.174999 80.95799 74.414 80.56999L74.989 124.94599C74.996 125.49399 75.443 125.93299 75.989 125.93299 75.993 125.93299 75.998 125.93299 76.003 125.93299 76.555 125.92599 76.997 125.47199 76.99 124.91999L76.651 98.76599C82.323 95.46999 87.591 92.01899 92.339008 88.49199 92.76501 89.12999 93.287 89.74599 93.936008 90.289989 94.284008 90.582988 94.657009 90.83798 95.047008 91.06599L94.59901 124.91899C94.592 125.47199 95.034008 125.92499 95.586009 125.93299 95.590007 125.93299 95.59501 125.93299 95.600009 125.93299 96.146 125.93299 96.592 125.49399 96.600009 124.94699L97.037 91.90299C97.928 92.15299 98.892009 92.285999 99.934009 92.285999 100.677 92.285999 101.45701 92.22199 102.274 92.09499 102.82 92.008998 103.193 91.49799 103.107 90.951999 103.023 90.406 102.509 90.036998 101.965007 90.118 99.106 90.564998 96.839008 90.10999 95.233 88.767 92.631008 86.592998 92.509 82.731998 92.507 82.661998L91.191 57.677995C91.062007 56.690996 91.538 56.148996 92.034008 56.063997 92.536 55.975996 92.922008 56.341997 93.060009 56.979997L94.63901 67.26399C94.64901 67.329998 94.66601 67.395999 94.68901 67.45899 94.74501 67.61199 94.821018 67.74899 94.90601 67.87799 94.47801 68.20999 94.069019 68.56699 93.68801 68.954998 93.30101 69.34999 93.307018 69.981998 93.70101 70.368999 93.89501 70.56 94.14901 70.656 94.40201 70.656 94.66101 70.656 94.920009 70.556 95.115009 70.356998 100.100009 65.284999 110.77701 65.81999 110.88501 65.824 111.42901 65.851 111.90901 65.433 111.93901 64.881999 111.96501 64.432 111.68101 64.048999 111.27901 63.901998L112.54301 50.731996C112.62701 49.639997 113.12101 48.776994 113.864009 48.421995 114.270008 48.227994 114.69701 48.226995 114.976009 48.418996 115.298007 48.641996 115.44501 49.128995 115.39001 49.805997L113.77901 73.34499C113.77301 73.42799 113.77801 73.51199 113.79301 73.593997 113.98201 74.619998 114.46001 75.27799 115.02301 75.687 114.80901 75.842998 114.58101 75.995998 114.33901 76.156 112.68701 77.25 110.63101 78.612 111.04701 83.213 111.097019 83.763 111.582019 84.181 112.13301 84.118999 112.683017 84.06899 113.08901 83.58299 113.03901 83.033 112.73001 79.620998 113.92701 78.826999 115.44301 77.823 116.22401 77.306 117.06901 76.739 117.69101 75.811 117.69901 75.799999 117.70401 75.787998 117.711009 75.777 118.049 75.263 118.32201 74.644 118.47401 73.853 119.05801 69.918 119.563 67.966999 119.562007 67.966999 120.021 66.565998 121.05701 66.172 121.633 66.062999 122.451007 65.906 123.28001 66.141 123.69701 66.643 124.048007 67.065998 124.08201 67.647998 123.80401 68.354999 122.12601 72.41499 121.73501 76.342998 121.38901 79.81 120.711009 86.616 120.298007 90.707 110.91401 90.368999 110.34401 90.335 109.89701 90.77699 109.87601 91.329998 109.855 91.881999 110.28601 92.34699 110.837009 92.367 111.22201 92.381999 111.59501 92.389 111.955 92.389 112.953 92.389 113.833 92.319 114.656 92.213L114.541 124.929C114.539 125.482 114.985 125.931 115.538 125.933 115.539 125.933 115.54 125.933 115.541 125.933 116.092 125.933 116.539 125.488 116.541 124.937L116.657 91.832C122.354 90.239 122.84 85.415 123.378 80.008 123.71 76.679 124.085 72.90501 125.657 69.102008 126.217 67.689 126.067 66.363 125.24 65.366ZM64.039 18.274C64.044 18.278 64.046009 18.283 64.051 18.287 64.063 18.296002 64.078 18.296002 64.091 18.304 64.82 18.77 65.37 19.67 65.37 20.990002 65.314 23.577002 65.15501 27.577002 64.987 31.811 64.783 36.940004 64.573 42.22 64.513 45.760004 63.362 45.583005 62.266 45.462 61.264 45.382005 61.107 39.979005 61.007 26.291005 60.998 20.225005 60.998 19.460005 61.205 18.846005 61.595 18.447005 61.669004 18.371005 61.752004 18.306004 61.838 18.246005 61.856004 18.235005 61.878004 18.233004 61.895 18.221005 61.904 18.215004 61.908 18.204005 61.917 18.198004 62.194 18.029004 62.521 17.934004 62.873 17.934004 63.277 17.932 63.677003 18.055 64.039 18.274ZM18.551 48.392C18.493 46.483999 18.448 44.994 18.447 44.379999 18.447 43.837999 18.584 43.408998 18.844 43.138998 19.105 42.867998 19.427 42.809999 19.652 42.809999 20.488 42.809999 21.334 43.560998 21.334 44.973 21.278 47.603 21.142 59.703 21.303 64.173999 20.373999 64.037998 19.496 63.947996 18.706 63.891996 18.936 61.149 18.705 53.486 18.551 48.392ZM25.265 65.033C25.272999 64.999 25.286 64.967998 25.292 64.934 25.298 64.896999 25.303 64.861 25.305 64.824L26.234002 49.906999C26.340003 49.025999 26.745 48.529 27.325 48.554998 27.865002 48.586999 28.411002 49.103998 28.413 49.976999 28.407 50.089998 27.845 60.715997 27.484 65.821 26.755 65.515 26.011 65.254 25.265 65.033ZM53.445 23.095C52.426 23.095 51.489999 23.48 50.809 24.178 50.295 24.703999 49.683 25.667 49.683 27.272L49.995 57.168C49.777 58.187 49.240999 58.490999 48.812 58.565999 48.659 58.249998 48.534 57.899 48.453 57.487 47.661 52.25 46.989 49.73 46.944 49.57 46.234 47.440999 44.603 45.994 42.47 45.6 40.557 45.244 38.631 45.863 37.561 47.168 36.583 48.361 36.416 49.948999 37.098 51.656999 39.155 56.545 39.646 61.399 40.079999 65.682 40.775999 72.55 41.401998 78.669 48.843 80.63L48.896 96.183C43.723 93.116 38.922 89.934 34.593 86.703998 35.423 84.67999 35.473 82.866 35.475 82.76599L36.778 57.93599C37.065 55.74199 35.743 54.33999 34.29 54.08999 32.991 53.863988 31.398 54.563989 30.949002 56.674989L29.44 66.50099C29.799 61.623994 30.404002 50.19599 30.411002 50.026994 30.411002 47.887994 28.883002 46.641996 27.445002 46.554994 26.039002 46.48899 24.521002 47.399995 24.243002 49.720994L23.319003 64.52999C23.132002 60.53299 23.276003 47.72399 23.334002 44.99299 23.334002 42.27499 21.437003 40.807989 19.652003 40.807989 18.785002 40.807989 17.985003 41.142988 17.402003 41.750989 16.966002 42.203989 16.447003 43.02799 16.447003 44.378988 16.448002 45.002988 16.493002 46.513986 16.552002 48.449987 16.697003 53.226987 16.938002 61.213987 16.712002 63.801988 16.711003 63.801988 16.710001 63.801988 16.709002 63.801988L15.439001 50.573987C15.299001 48.760988 14.381001 47.279989 12.984001 46.613988 11.916001 46.102987 10.753001 46.162988 9.875001 46.769987 9.333001 47.143987 8.4470009 48.055986 8.603001 49.938985L9.287001 59.931985C-3.877 37.589 2.537 16.773 16.352 7.271 28.097-.809 46.653-1.0380001 59.975999 17.257 59.492998 17.833 58.997999 18.775 58.997999 20.225 59.006998 26.234002 59.104997 39.71 59.26 45.261 58.796998 45.243 58.377 45.234 57.996 45.230005V28.261C57.995 24.906 55.651 23.095 53.445 23.095ZM72.856 48.119C71.821 47.649999 70.753009 47.257 69.679 46.927L70.3 27.335C70.457 26.057999 71.138 25.303 72.047008 25.355999 72.89101 25.407999 73.745 26.168999 73.746 27.487999 73.74 27.65 73.184 42.316 72.856 48.119ZM97.579 50.029C97.579 49.103 98.125 48.586999 98.665 48.554 99.235 48.534 99.65 49.025 99.751 49.848L100.685 64.823C100.687 64.86 100.692 64.895999 100.698 64.933 100.703998 64.968 100.716999 64.999 100.725 65.032 99.979 65.253 99.235 65.515 98.506 65.82 98.145 60.716 97.583 50.092 97.579 50.029ZM104.656 44.995C104.656 43.560998 105.502 42.809999 106.338 42.809999 106.562999 42.809999 106.884998 42.867998 107.145999 43.138998 107.406 43.409997 107.543 43.837999 107.543 44.378999 107.542 44.992998 107.497 46.482999 107.439 48.392 107.285 53.486 107.054 61.149 107.283008 63.892 106.493007 63.947999 105.615009 64.038 104.686008 64.173999 104.848 59.704 104.712 47.604 104.656 44.995ZM113.007 46.617C111.61 47.283 110.693 48.763 110.554 50.558L109.283 63.802999C109.050998 61.256998 109.294 53.240999 109.438999 48.451997 109.49799 46.514997 109.54299 45.004999 109.544 44.379999 109.544 43.03 109.024 42.205999 108.589 41.753 108.005 41.144998 107.20599 40.809999 106.339 40.809999 104.55399 40.809999 102.657 42.276998 102.657 45.016 102.715 47.724 102.859 60.512 102.672 64.531L101.743 49.666C101.47099 47.403 99.953998 46.493 98.546 46.558 97.107997 46.645 95.579998 47.891 95.58099 50.081998 95.58699 50.198999 96.19199 61.635999 96.551998 66.506999L95.032 56.618997C94.591 54.564 93 53.868 91.7 54.091 90.246997 54.341 88.925998 55.742 89.204998 57.86L90.51299 82.734C90.51499 82.854007 90.565998 84.677 91.396999 86.705 86.918 90.047008 81.95999 93.323 76.62599 96.465007L76.41 79.728C76.98801 79.408 77.532009 79.034999 78.04 78.607997 82.167 75.134998 82.325 69.437999 82.328 69.23899L84.309009 36.94899C84.309009 33.10199 82.564 31.64299 80.93101 31.56099 78.98801 31.450989 77.378009 33.18099 77.13901 35.549989L75.671009 49.655988C75.386 49.468988 75.09601 49.289987 74.801 49.118989 75.12 44.099988 75.72 28.262988 75.747 27.524989 75.747 24.960988 73.905 23.46399 72.171009 23.358988 70.505008 23.240988 68.65101 24.370987 68.310009 27.179989L67.69701 46.383989C67.299 46.287988 66.90201 46.197988 66.509 46.11699 66.561008 42.60799 66.777 37.167989 66.987 31.888989 67.156 27.645989 67.316 23.63699 67.372 21.009989 67.372 19.394989 66.813 18.149989 65.990009 17.29399 79.304-1.024 97.861-.816 109.619 7.257 123.451007 16.756 129.877 37.573999 116.705 59.934003L117.388 49.955C117.545 48.059003 116.659008 47.146005 116.117 46.772005 115.237 46.166 114.075 46.106 113.007 46.617Z" fill="#ffffff"/>
</g>
<path transform="matrix(1,0,0,-1,0,383.03999)" d="M-7.9511835 8.039989H390.90238V375.71043H-7.9511835Z" fill-opacity="0"/>
</svg>
